<svg width="20" height="21" viewBox="0 0 20 21" fill="none" xmlns="http://www.w3.org/2000/svg">
<path d="M13.1561 19.7281V12.0453C13.1561 11.7906 13.055 11.5463 12.8749 11.3662C12.6948 11.1861 12.4505 11.085 12.1958 11.085H8.35439C8.09969 11.085 7.85542 11.1861 7.67532 11.3662C7.49522 11.5463 7.39404 11.7906 7.39404 12.0453V19.7281" stroke="#081BAE" stroke-width="2" stroke-linecap="round" stroke-linejoin="round"/>
<path d="M1.63184 9.16435C1.63177 8.88495 1.69266 8.6089 1.81026 8.35546C1.92786 8.10202 2.09933 7.87728 2.31272 7.69693L9.03516 1.9358C9.38184 1.64281 9.82107 1.48206 10.275 1.48206C10.7289 1.48206 11.1681 1.64281 11.5148 1.9358L18.2372 7.69693C18.4506 7.87728 18.6221 8.10202 18.7397 8.35546C18.8573 8.6089 18.9182 8.88495 18.9181 9.16435V17.8075C18.9181 18.3169 18.7158 18.8054 18.3556 19.1656C17.9954 19.5258 17.5068 19.7282 16.9974 19.7282H3.55253C3.04313 19.7282 2.5546 19.5258 2.1944 19.1656C1.83419 18.8054 1.63184 18.3169 1.63184 17.8075V9.16435Z" stroke="#081BAE" stroke-width="2" stroke-linecap="round" stroke-linejoin="round"/>
</svg>
