<svg width="24" height="24" viewBox="0 0 24 24" fill="none" xmlns="http://www.w3.org/2000/svg">
<path d="M8.41259 8.56323L15.4229 15.5735M10.4155 20.5808L20.4302 10.5662C20.8982 10.1076 21.2706 9.56074 21.5259 8.95732C21.7812 8.3539 21.9144 7.70586 21.9177 7.05066C21.921 6.39545 21.7944 5.7461 21.5452 5.14013C21.2959 4.53416 20.9291 3.98361 20.4658 3.52031C20.0025 3.057 19.4519 2.69014 18.846 2.44093C18.24 2.19172 17.5906 2.06511 16.9354 2.06842C16.2802 2.07173 15.6322 2.20489 15.0288 2.46021C14.4253 2.71553 13.8785 3.08793 13.4199 3.55589L3.40526 13.5706C2.9373 14.0292 2.56489 14.576 2.30958 15.1794C2.05426 15.7828 1.9211 16.4309 1.91779 17.0861C1.91448 17.7413 2.04109 18.3906 2.2903 18.9966C2.53951 19.6026 2.90637 20.1531 3.36967 20.6164C3.83298 21.0797 4.38353 21.4466 4.98949 21.6958C5.59546 21.945 6.24482 22.0716 6.90002 22.0683C7.55522 22.065 8.20327 21.9318 8.80669 21.6765C9.41011 21.4212 9.95692 21.0488 10.4155 20.5808Z" stroke="#081BAE" stroke-width="2.56" stroke-linecap="round" stroke-linejoin="round"/>
</svg>
