<svg width="24" height="24" viewBox="0 0 24 24" fill="none" xmlns="http://www.w3.org/2000/svg">
<path d="M8.41284 8.56323L15.4231 15.5735M10.4158 20.5808L20.4304 10.5662C20.8984 10.1076 21.2708 9.56074 21.5261 8.95732C21.7814 8.3539 21.9146 7.70586 21.9179 7.05066C21.9212 6.39545 21.7946 5.7461 21.5454 5.14013C21.2962 4.53416 20.9293 3.98361 20.466 3.52031C20.0027 3.057 19.4522 2.69014 18.8462 2.44093C18.2402 2.19172 17.5909 2.06511 16.9357 2.06842C16.2805 2.07173 15.6324 2.20489 15.029 2.46021C14.4256 2.71553 13.8788 3.08793 13.4202 3.55589L3.4055 13.5706C2.93754 14.0292 2.56514 14.576 2.30982 15.1794C2.0545 15.7828 1.92134 16.4309 1.91803 17.0861C1.91472 17.7413 2.04133 18.3906 2.29054 18.9966C2.53975 19.6026 2.90661 20.1531 3.36992 20.6164C3.83322 21.0797 4.38377 21.4466 4.98974 21.6958C5.59571 21.945 6.24506 22.0716 6.90027 22.0683C7.55547 22.065 8.20351 21.9318 8.80693 21.6765C9.41035 21.4212 9.95717 21.0488 10.4158 20.5808Z" stroke="#585858" stroke-width="2.56" stroke-linecap="round" stroke-linejoin="round"/>
</svg>
