<svg width="14" height="14" viewBox="0 0 14 14" fill="none" xmlns="http://www.w3.org/2000/svg">
<mask id="path-1-inside-1_438_108" fill="white">
<path fill-rule="evenodd" clip-rule="evenodd" d="M7 14C3.1339 14 0 10.8661 0 7C0 3.1339 3.1339 0 7 0C10.8661 0 14 3.1339 14 7C14 10.8661 10.8661 14 7 14ZM7 13.16C8.63373 13.16 10.2006 12.511 11.3558 11.3558C12.511 10.2006 13.16 8.63373 13.16 7C13.16 5.36627 12.511 3.79945 11.3558 2.64422C10.2006 1.489 8.63373 0.84 7 0.84C5.36627 0.84 3.79945 1.489 2.64422 2.64422C1.489 3.79945 0.84 5.36627 0.84 7C0.84 8.63373 1.489 10.2006 2.64422 11.3558C3.79945 12.511 5.36627 13.16 7 13.16ZM6.1796 8.7906L10.2459 4.725L10.8395 5.3193L6.6745 9.4843C6.54323 9.61553 6.36521 9.68925 6.1796 9.68925C5.99399 9.68925 5.81597 9.61553 5.6847 9.4843L3.5 7.2982L4.0943 6.7039L6.1803 8.7899L6.1796 8.7906Z"/>
</mask>
<path fill-rule="evenodd" clip-rule="evenodd" d="M7 14C3.1339 14 0 10.8661 0 7C0 3.1339 3.1339 0 7 0C10.8661 0 14 3.1339 14 7C14 10.8661 10.8661 14 7 14ZM7 13.16C8.63373 13.16 10.2006 12.511 11.3558 11.3558C12.511 10.2006 13.16 8.63373 13.16 7C13.16 5.36627 12.511 3.79945 11.3558 2.64422C10.2006 1.489 8.63373 0.84 7 0.84C5.36627 0.84 3.79945 1.489 2.64422 2.64422C1.489 3.79945 0.84 5.36627 0.84 7C0.84 8.63373 1.489 10.2006 2.64422 11.3558C3.79945 12.511 5.36627 13.16 7 13.16ZM6.1796 8.7906L10.2459 4.725L10.8395 5.3193L6.6745 9.4843C6.54323 9.61553 6.36521 9.68925 6.1796 9.68925C5.99399 9.68925 5.81597 9.61553 5.6847 9.4843L3.5 7.2982L4.0943 6.7039L6.1803 8.7899L6.1796 8.7906Z" fill="#45AE08"/>
<path d="M7 0.84L7 -10.16L7 0.84ZM0.84 7L-10.16 7L0.84 7ZM6.1796 8.7906L-1.59791 1.01176L13.9541 16.5725L6.1796 8.7906ZM10.2459 4.725L18.0286 -3.0486L10.2511 -10.8353L2.46839 -3.05384L10.2459 4.725ZM10.8395 5.3193L18.6177 13.0975L26.3913 5.32388L18.6223 -2.4543L10.8395 5.3193ZM6.6745 9.4843L14.4515 17.2636L14.4527 17.2625L6.6745 9.4843ZM5.6847 9.4843L-2.09597 17.26L-2.0923 17.2636L5.6847 9.4843ZM3.5 7.2982L-4.27817 -0.479975L-12.0539 7.29571L-4.28067 15.0739L3.5 7.2982ZM4.0943 6.7039L11.8725 -1.07427L4.0943 -8.85245L-3.68387 -1.07427L4.0943 6.7039ZM6.1803 8.7899L13.9548 16.5718L21.7404 8.79361L13.9585 1.01173L6.1803 8.7899ZM7 14V3C9.20903 3 11 4.79097 11 7H0H-11C-11 16.9412 -2.94123 25 7 25V14ZM0 7H11C11 9.20903 9.20903 11 7 11V0V-11C-2.94123 -11 -11 -2.94123 -11 7H0ZM7 0V11C4.79097 11 3 9.20903 3 7H14H25C25 -2.94123 16.9412 -11 7 -11V0ZM14 7H3C3 4.79097 4.79097 3 7 3V14V25C16.9412 25 25 16.9412 25 7H14ZM7 13.16V24.16C11.5511 24.16 15.9158 22.3521 19.134 19.134L11.3558 11.3558L3.5776 3.5776C4.48528 2.66992 5.71636 2.16 7 2.16V13.16ZM11.3558 11.3558L19.134 19.134C22.3521 15.9158 24.16 11.5511 24.16 7H13.16H2.16C2.16 5.71636 2.66992 4.48528 3.5776 3.5776L11.3558 11.3558ZM13.16 7H24.16C24.16 2.44889 22.3521 -1.91583 19.134 -5.13395L11.3558 2.64422L3.5776 10.4224C2.66992 9.51472 2.16 8.28364 2.16 7H13.16ZM11.3558 2.64422L19.134 -5.13395C15.9158 -8.35208 11.5511 -10.16 7 -10.16L7 0.84L7 11.84C5.71635 11.84 4.48528 11.3301 3.5776 10.4224L11.3558 2.64422ZM7 0.84L7 -10.16C2.44889 -10.16 -1.91583 -8.35208 -5.13395 -5.13395L2.64422 2.64422L10.4224 10.4224C9.51472 11.3301 8.28365 11.84 7 11.84L7 0.84ZM2.64422 2.64422L-5.13395 -5.13395C-8.35208 -1.91583 -10.16 2.44889 -10.16 7L0.84 7L11.84 7C11.84 8.28365 11.3301 9.51472 10.4224 10.4224L2.64422 2.64422ZM0.84 7L-10.16 7C-10.16 11.5511 -8.35208 15.9158 -5.13395 19.134L2.64422 11.3558L10.4224 3.5776C11.3301 4.48528 11.84 5.71635 11.84 7L0.84 7ZM2.64422 11.3558L-5.13395 19.134C-1.91583 22.3521 2.44889 24.16 7 24.16V13.16V2.16C8.28364 2.16 9.51472 2.66992 10.4224 3.5776L2.64422 11.3558ZM6.1796 8.7906L13.9571 16.5694L18.0234 12.5038L10.2459 4.725L2.46839 -3.05384L-1.59791 1.01176L6.1796 8.7906ZM10.2459 4.725L2.46315 12.4986L3.05675 13.0929L10.8395 5.3193L18.6223 -2.4543L18.0286 -3.0486L10.2459 4.725ZM10.8395 5.3193L3.06133 -2.45888L-1.10367 1.70612L6.6745 9.4843L14.4527 17.2625L18.6177 13.0975L10.8395 5.3193ZM6.6745 9.4843L-1.1025 1.70495C0.82903 -0.225997 3.4484 -1.31075 6.1796 -1.31075V9.68925V20.6893C9.28203 20.6893 12.2574 19.4571 14.4515 17.2636L6.6745 9.4843ZM6.1796 9.68925V-1.31075C8.9108 -1.31075 11.5302 -0.225997 13.4617 1.70495L5.6847 9.4843L-2.0923 17.2636C0.101769 19.4571 3.07717 20.6893 6.1796 20.6893V9.68925ZM5.6847 9.4843L13.4654 1.70862L11.2807 -0.477483L3.5 7.2982L-4.28067 15.0739L-2.09597 17.26L5.6847 9.4843ZM3.5 7.2982L11.2782 15.0764L11.8725 14.4821L4.0943 6.7039L-3.68387 -1.07427L-4.27817 -0.479975L3.5 7.2982ZM4.0943 6.7039L-3.68387 14.4821L-1.59787 16.5681L6.1803 8.7899L13.9585 1.01173L11.8725 -1.07427L4.0943 6.7039ZM6.1803 8.7899L-1.59416 1.00802L-1.59486 1.00872L6.1796 8.7906L13.9541 16.5725L13.9548 16.5718L6.1803 8.7899Z" fill="#45AE08" mask="url(#path-1-inside-1_438_108)"/>
</svg>
