<svg width="12" height="14" viewBox="0 0 12 14" fill="none" xmlns="http://www.w3.org/2000/svg">
<path d="M9.31965 1H3.07903C2.20423 1 1.43683 1.591 1.40203 2.4424C1.35763 3.51341 2.11123 4.22441 2.90203 4.89221C3.99703 5.81621 4.54424 6.27822 4.60124 6.86262C4.61044 6.95422 4.61044 7.04582 4.60124 7.13742C4.54424 7.72242 3.99703 8.18382 2.90203 9.10782C2.08903 9.79363 1.35523 10.432 1.40203 11.5576C1.43623 12.4096 2.20303 13 3.07843 13H9.31905C10.1939 13 10.9613 12.409 10.9967 11.5576C11.0243 10.8796 10.7729 10.2052 10.2395 9.73603C9.99645 9.52182 9.74385 9.31722 9.49545 9.10782C8.40105 8.18382 7.85384 7.72182 7.79684 7.13742C7.7877 7.04605 7.7877 6.95399 7.79684 6.86262C7.85384 6.27762 8.40165 5.81621 9.49605 4.89221C10.3001 4.21361 11.0423 3.55481 10.9961 2.4424C10.9625 1.5904 10.1945 1 9.31965 1Z" stroke="#E1D123" stroke-linecap="round" stroke-linejoin="round"/>
<path d="M4.39893 12.7833C4.39893 12.5181 4.39893 12.3855 4.45173 12.2697C4.46001 12.2513 4.46922 12.2332 4.47933 12.2157C4.54353 12.1059 4.65213 12.0285 4.86933 11.8731C5.47293 11.4417 5.77533 11.2263 6.11793 11.2035C6.17193 11.1999 6.22593 11.1999 6.27993 11.2035C6.62313 11.2263 6.92493 11.4417 7.52794 11.8731C7.74574 12.0285 7.85434 12.1059 7.91854 12.2157C7.92894 12.2337 7.93814 12.2517 7.94614 12.2697C7.99894 12.3855 7.99894 12.5181 7.99894 12.7833V13.0005H4.39893V12.7833Z" stroke="#E1D123" stroke-linecap="round" stroke-linejoin="round"/>
</svg>
