<svg width="100" height="95" viewBox="0 0 100 95" fill="none" xmlns="http://www.w3.org/2000/svg">
<path d="M50 2.5C24.0419 2.5 3 22.5346 3 47.25C3 71.9654 24.0419 92 50 92C75.9581 92 97 71.9654 97 47.25C97 22.5346 75.9581 2.5 50 2.5Z" stroke="#081BAE" stroke-width="4.5" stroke-linecap="round" stroke-linejoin="round"/>
<path d="M13.6736 75.6491C13.6736 75.6491 24.1499 59.5004 49.9999 59.5004C75.8499 59.5004 86.3309 75.6491 86.3309 75.6491M49.9999 47.2508C53.7394 47.2508 57.3258 45.8363 59.9701 43.3187C62.6144 40.801 64.0999 37.3863 64.0999 33.8258C64.0999 30.2652 62.6144 26.8505 59.9701 24.3328C57.3258 21.8152 53.7394 20.4008 49.9999 20.4008C46.2603 20.4008 42.6739 21.8152 40.0297 24.3328C37.3854 26.8505 35.8999 30.2652 35.8999 33.8258C35.8999 37.3863 37.3854 40.801 40.0297 43.3187C42.6739 45.8363 46.2603 47.2508 49.9999 47.2508Z" stroke="#081BAE" stroke-width="4.5" stroke-linecap="round" stroke-linejoin="round"/>
</svg>
