<svg width="21" height="22" viewBox="0 0 21 22" fill="none" xmlns="http://www.w3.org/2000/svg">
<path d="M5.83301 12.7422H15.167C16.3548 12.7423 17.5063 13.2369 18.3652 14.1367C18.7224 14.5109 19.074 15.1684 19.335 15.999C19.5904 16.8122 19.7207 17.6661 19.7207 18.333L19.709 18.5762C19.6557 19.1361 19.4192 19.654 19.0488 20.042C18.6274 20.4835 18.0691 20.7207 17.5 20.7207H3.5L3.28711 20.709C2.79325 20.6577 2.31989 20.4283 1.95117 20.042C1.52782 19.5985 1.2793 18.9847 1.2793 18.333L1.28613 18.0752C1.31441 17.4537 1.44145 16.7108 1.66504 15.999C1.92601 15.1684 2.27763 14.5109 2.63477 14.1367C3.44017 13.293 4.5027 12.8055 5.61133 12.748L5.83301 12.7422ZM10.5 1.2793C11.3785 1.2793 12.2338 1.64477 12.874 2.31543C13.5162 2.98814 13.8867 3.91284 13.8867 4.88867L13.8828 5.07129C13.8397 5.97939 13.476 6.83123 12.874 7.46191C12.2338 8.13265 11.3785 8.49805 10.5 8.49805L10.3359 8.49414C9.5156 8.45166 8.7263 8.09082 8.12598 7.46191C7.48386 6.78917 7.11328 5.86453 7.11328 4.88867L7.11719 4.70703C7.16015 3.79868 7.52383 2.94625 8.12598 2.31543C8.72628 1.6866 9.51566 1.32666 10.3359 1.28418L10.5 1.2793Z" stroke="#081BAE" stroke-width="2.55955"/>
</svg>
