<svg width="22" height="23" viewBox="0 0 22 23" fill="none" xmlns="http://www.w3.org/2000/svg">
<path d="M6.75073 12.8105H16.0847C17.2725 12.8106 18.424 13.3053 19.283 14.2051C19.6401 14.5792 19.9917 15.2367 20.2527 16.0674C20.5081 16.8806 20.6384 17.7345 20.6384 18.4014L20.6267 18.6445C20.5734 19.2045 20.3369 19.7224 19.9666 20.1104C19.5451 20.5519 18.9868 20.7891 18.4177 20.7891H4.41772L4.20483 20.7773C3.71098 20.726 3.23761 20.4966 2.8689 20.1104C2.44555 19.6668 2.19702 19.0531 2.19702 18.4014L2.20386 18.1436C2.23213 17.5221 2.35918 16.7792 2.58276 16.0674C2.84374 15.2367 3.19535 14.5792 3.55249 14.2051C4.3579 13.3614 5.42042 12.8739 6.52905 12.8164L6.75073 12.8105ZM11.4177 1.34766C12.2962 1.34766 13.1515 1.71313 13.7917 2.38379C14.4339 3.0565 14.8044 3.9812 14.8044 4.95703L14.8005 5.13965C14.7575 6.04775 14.3937 6.89959 13.7917 7.53027C13.1515 8.20101 12.2963 8.56641 11.4177 8.56641L11.2537 8.5625C10.4333 8.52002 9.64402 8.15918 9.0437 7.53027C8.40159 6.85753 8.03101 5.93289 8.03101 4.95703L8.03491 4.77539C8.07787 3.86704 8.44155 3.01461 9.0437 2.38379C9.644 1.75496 10.4334 1.39502 11.2537 1.35254L11.4177 1.34766Z" stroke="#585858" stroke-width="2.55955"/>
</svg>
