<svg width="20" height="17" viewBox="0 0 20 17" fill="none" xmlns="http://www.w3.org/2000/svg">
<path d="M1.02319e-06 8.5C1.02319e-06 8.07532 0.170863 7.66804 0.474998 7.36775C0.779132 7.06746 1.19163 6.89876 1.62174 6.89876H14.4659L10.2061 2.69284C9.91967 2.3893 9.76372 1.98782 9.77113 1.57299C9.77854 1.15816 9.94874 0.762367 10.2459 0.468992C10.543 0.175618 10.9439 0.00756866 11.364 0.000249467C11.7841 -0.00706972 12.1908 0.146912 12.4982 0.429755L19.5257 7.36846C19.8294 7.66869 20 8.07567 20 8.5C20 8.92433 19.8294 9.33131 19.5257 9.63154L12.4982 16.5702C12.1908 16.8531 11.7841 17.0071 11.364 16.9997C10.9439 16.9924 10.543 16.8244 10.2459 16.531C9.94874 16.2376 9.77854 15.8418 9.77113 15.427C9.76372 15.0122 9.91967 14.6107 10.2061 14.3072L14.4659 10.1012H1.62174C1.19163 10.1012 0.779132 9.93254 0.474998 9.63225C0.170863 9.33196 1.02319e-06 8.92467 1.02319e-06 8.5Z" fill="#081BAE"/>
</svg>
