<svg width="22" height="22" viewBox="0 0 22 22" fill="none" xmlns="http://www.w3.org/2000/svg">
<path d="M9.91773 12.0684H2.41773C1.99273 12.0684 1.63673 11.9244 1.34973 11.6364C1.06273 11.3484 0.91873 10.9924 0.91773 10.5684C0.91673 10.1444 1.06073 9.78836 1.34973 9.50036C1.63873 9.21236 1.99473 9.06836 2.41773 9.06836H9.91773V1.56836C9.91773 1.14336 10.0617 0.787364 10.3497 0.500365C10.6377 0.213365 10.9937 0.0693645 11.4177 0.0683645C11.8417 0.0673645 12.1982 0.211365 12.4872 0.500365C12.7762 0.789364 12.9197 1.14536 12.9177 1.56836V9.06836H20.4177C20.8427 9.06836 21.1992 9.21236 21.4872 9.50036C21.7752 9.78836 21.9187 10.1444 21.9177 10.5684C21.9167 10.9924 21.7727 11.3489 21.4857 11.6379C21.1987 11.9269 20.8427 12.0704 20.4177 12.0684H12.9177V19.5684C12.9177 19.9934 12.7737 20.3499 12.4857 20.6379C12.1977 20.9259 11.8417 21.0694 11.4177 21.0684C10.9937 21.0674 10.6377 20.9234 10.3497 20.6364C10.0617 20.3494 9.91773 19.9934 9.91773 19.5684V12.0684Z" fill="#081BAE"/>
</svg>
