<svg width="20" height="21" viewBox="0 0 20 21" fill="none" xmlns="http://www.w3.org/2000/svg">
<path d="M10 0.5C11.3132 0.500001 12.5424 0.762001 13.6934 1.2832C14.8543 1.80895 15.8597 2.51954 16.7129 3.41602C17.5664 4.31286 18.2464 5.3712 18.751 6.5957C19.2513 7.81009 19.5019 9.10968 19.5 10.499C19.4981 11.8894 19.2465 13.1901 18.749 14.4053C18.248 15.6291 17.5687 16.6874 16.7129 17.584C15.8568 18.4808 14.8517 19.1924 13.6934 19.7188C12.6892 20.1751 11.6226 20.432 10.4902 20.4883L10.001 20.5H10C8.68528 20.5 7.45613 20.2379 6.30664 19.7168C5.14705 19.1911 4.14173 18.4806 3.28711 17.584C2.43255 16.6874 1.75344 15.6293 1.25098 14.4053C0.75228 13.1903 0.500666 11.89 0.5 10.5C0.499362 9.1104 0.750248 7.81031 1.25 6.5957C1.75387 5.37128 2.43367 4.31281 3.28711 3.41602C4.14026 2.51954 5.14572 1.80895 6.30664 1.2832C7.45758 0.762003 8.68676 0.5 10 0.5ZM10 1.59961C7.64227 1.59961 5.62433 2.47629 3.97461 4.20996C2.32596 5.94252 1.5007 8.0492 1.5 10.5C1.49933 12.951 2.32498 15.0578 3.97559 16.791C5.5239 18.4168 7.39406 19.2882 9.5625 19.3896L10 19.4004C12.3564 19.4004 14.3744 18.5238 16.0254 16.791C17.6755 15.0591 18.5007 12.9522 18.5 10.5C18.4993 8.04792 17.6741 5.94093 16.0254 4.20898C14.3756 2.476 12.3577 1.59961 10 1.59961ZM9.99902 5.75C10.148 5.75042 10.2545 5.79703 10.3506 5.89746C10.447 5.99832 10.5 6.12112 10.5 6.2998V10.2803L10.6377 10.4248L13.6377 13.5752C13.7216 13.6633 13.7754 13.7793 13.7754 13.9648C13.7754 14.1506 13.7217 14.2673 13.6377 14.3555C13.5555 14.4416 13.4562 14.4883 13.2998 14.4883C13.1434 14.4882 13.0441 14.4417 12.9619 14.3555L9.66211 10.8906L9.66113 10.8887L9.59082 10.7998C9.57126 10.769 9.55475 10.7367 9.54199 10.7031C9.51355 10.6281 9.5 10.5524 9.5 10.4736V6.2998C9.50004 6.12325 9.55245 5.99971 9.65039 5.89648C9.74625 5.79548 9.85182 5.74964 9.99902 5.75Z" stroke="#081BAE"/>
</svg>
