<svg width="21" height="22" viewBox="0 0 21 22" fill="none" xmlns="http://www.w3.org/2000/svg">
<path d="M10.9177 0.568359C12.231 0.56836 13.4601 0.83036 14.6111 1.35156C15.772 1.87731 16.7775 2.5879 17.6306 3.48438C18.4841 4.38122 19.1642 5.43956 19.6687 6.66406C20.169 7.87844 20.4196 9.17804 20.4177 10.5674C20.4158 11.9577 20.1643 13.2584 19.6667 14.4736C19.1657 15.6974 18.4864 16.7558 17.6306 17.6523C16.7745 18.5491 15.7694 19.2607 14.6111 19.7871C13.6069 20.2435 12.5403 20.5004 11.408 20.5566L10.9187 20.5684H10.9177C9.60301 20.5684 8.37385 20.3063 7.22437 19.7852C6.06478 19.2594 5.05946 18.549 4.20483 17.6523C3.35028 16.7557 2.67117 15.6977 2.1687 14.4736C1.67 13.2587 1.41839 11.9584 1.41772 10.5684C1.41709 9.17876 1.66797 7.87867 2.16772 6.66406C2.67159 5.43964 3.35139 4.38117 4.20483 3.48438C5.05799 2.5879 6.06345 1.87731 7.22437 1.35156C8.37531 0.830362 9.60448 0.568359 10.9177 0.568359ZM10.9177 1.66797C8.55999 1.66797 6.54206 2.54465 4.89233 4.27832C3.24369 6.01088 2.41843 8.11756 2.41772 10.5684C2.41706 13.0193 3.24271 15.1262 4.89331 16.8594C6.44163 18.4851 8.31178 19.3566 10.4802 19.458L10.9177 19.4688C13.2742 19.4687 15.2921 18.5921 16.9431 16.8594C18.5932 15.1274 19.4184 13.0205 19.4177 10.5684C19.417 8.11628 18.5918 6.00929 16.9431 4.27734C15.2934 2.54436 13.2754 1.66797 10.9177 1.66797ZM10.9167 5.81836C11.0657 5.81878 11.1723 5.86539 11.2683 5.96582C11.3647 6.06668 11.4177 6.18948 11.4177 6.36816V10.3486L11.5554 10.4932L14.5554 13.6436C14.6393 13.7317 14.6931 13.8476 14.6931 14.0332C14.6931 14.2189 14.6394 14.3357 14.5554 14.4238C14.4732 14.51 14.3739 14.5566 14.2175 14.5566C14.0611 14.5566 13.9618 14.5101 13.8796 14.4238L10.5798 10.959L10.5789 10.957L10.5085 10.8682C10.489 10.8374 10.4725 10.8051 10.4597 10.7715C10.4313 10.6965 10.4177 10.6208 10.4177 10.542V6.36816C10.4178 6.19161 10.4702 6.06807 10.5681 5.96484C10.664 5.86384 10.7695 5.81799 10.9167 5.81836Z" fill="#081BAE" stroke="#585858"/>
</svg>
